<svg width="1411" height="704" viewBox="0 0 1411 704" fill="none" xmlns="http://www.w3.org/2000/svg">
<g filter="url(#filter0_d_1_33)">
<path d="M151.882 21.9137C116.682 21.9137 81.5186 19.623 46.3274 18.4614C44.1198 18.3886 41.9108 18.6343 39.7832 19.228C33.8285 20.8899 29.423 22.3114 22.6654 23.0999C21.9082 23.1883 17.8983 28.7029 16.9545 29.7559C14.6895 32.2831 11.3692 37.9141 11.3692 41.4863C11.3692 47.6071 8.77064 55.935 7.10172 61.8498C5.7459 66.6549 6.73524 72.0327 5.15625 77.007C4.05566 80.4743 3.46182 84.1524 3.46182 87.8148C3.46182 97.108 2.07561 105.785 0.95154 114.966C-0.375526 125.805 0.0729438 136.736 0.0729438 147.653V220.803C0.0729438 273.025 1.43323 325.605 6.28588 377.582C7.75335 393.3 11.2361 409.178 11.3692 424.965C11.4736 437.352 11.3692 449.746 11.3692 462.133V548.727V595.913C11.3692 605.425 9.64837 614.694 9.17269 624.184C8.45117 638.58 5.90012 651.615 8.23134 666.031C9.43917 673.501 11.2636 681.614 13.0636 688.965C14.5767 695.144 14.4699 697.325 19.7786 700.366C30.8815 706.726 45.7938 702.804 57.6838 702.804C84.6806 702.804 111.427 700.432 138.264 700.432C190.758 700.432 243.454 698.059 295.972 698.059C323.35 698.059 350.943 695.175 378.246 693.051C401.408 691.249 424.29 690.942 447.53 690.942C487.385 690.942 527.327 690.076 567.144 691.865L567.172 691.866C596.571 693.187 625.823 694.501 655.255 694.501C671.278 694.501 687.046 696.972 703.076 694.764C711.253 693.638 719.334 693.932 727.237 694.435C742.187 695.386 757.388 694.38 772.359 694.501C790.416 694.647 808.439 695.687 826.519 695.687C855.006 695.687 883.412 694.432 911.68 691.206C937.409 688.269 962.396 688.857 988.18 689.69C1021.96 690.781 1055.74 690.475 1089.53 690.942C1134.81 691.568 1180.26 693.315 1225.59 693.315C1248.17 693.315 1270.65 693.56 1293.18 694.567C1306.43 695.159 1319.77 697.061 1333.03 696.873C1340.78 696.763 1348.25 694.67 1356 694.501C1370.97 694.173 1395.16 683.131 1395.16 664.318C1395.16 643.015 1396.47 621.253 1394.03 600.13C1391.47 577.989 1388.38 556.096 1388.38 533.702V500.554C1388.38 487.421 1390.83 474.905 1391.71 462.002C1393.25 439.265 1394.23 416.738 1397.42 394.123C1401.26 366.841 1399.68 338.744 1399.68 311.22C1399.68 290.991 1397.42 271.007 1397.42 250.854C1397.42 226.07 1393.34 201.514 1392.9 176.781C1392.77 169.448 1390.04 161.999 1389.45 154.573C1388.82 146.652 1388.38 139.014 1388.38 131.046C1388.38 115.919 1391.77 100.942 1391.77 85.9696C1391.77 72.9271 1392.88 59.195 1391.71 46.2312C1391.24 41.0998 1388.74 29.1742 1384.74 26.1314C1381.06 23.332 1373.84 17.4137 1369.18 17.1688C1340.5 15.6632 1311.71 18.355 1283.08 18.355C1232.12 18.355 1181.22 15.9245 1130.39 12.4239C1111.05 11.0925 1091.85 11.4279 1072.46 11.2377C1054.22 11.0587 1036.27 10.8409 1017.99 11.1718C998.373 11.527 979.435 15.3491 959.94 17.1688C935.565 19.444 910.823 18.355 886.326 18.355C863.889 18.355 841.536 20.7275 819.113 20.7275C801.149 20.7275 783.378 21.5026 765.456 22.8363C752.12 23.8287 739.263 26.6586 725.794 26.6586H649.356C635.121 26.6586 621.555 25.5834 607.434 24.0225C589.456 22.0352 571.914 21.9137 553.84 21.9137C534.12 21.9137 513.915 19.7157 494.346 17.4324C478.834 15.6224 462.495 17.1688 446.902 17.1688H400.713C377.39 17.1688 354.117 19.5412 330.802 19.5412H219.22C196.654 19.5412 174.389 21.9137 151.882 21.9137Z" fill="#1FEDAF"/>
<path d="M567.234 689.867L567.237 689.867L567.262 689.868C567.263 689.868 567.264 689.868 567.264 689.868M567.234 689.867L567.144 691.865C537.12 690.516 507.024 690.677 476.948 690.837C467.139 690.89 457.332 690.942 447.53 690.942C424.29 690.942 401.408 691.249 378.246 693.051C372.664 693.485 367.069 693.951 361.467 694.418C339.669 696.234 317.752 698.059 295.972 698.059C269.71 698.059 243.403 698.653 217.1 699.246C190.802 699.839 164.508 700.432 138.264 700.432C124.866 700.432 111.49 701.023 98.0939 701.615C84.6582 702.209 71.2023 702.804 57.6838 702.804C54.4832 702.804 51.0637 703.088 47.5584 703.38C38.0416 704.17 27.8928 705.014 19.7786 700.366C15.0929 697.682 14.6262 695.668 13.5408 690.983C13.3964 690.36 13.2412 689.69 13.0636 688.965C11.2636 681.614 9.43917 673.501 8.23134 666.031C6.55369 655.657 7.40452 645.998 8.28236 636.032C8.62434 632.149 8.97041 628.22 9.17269 624.184C9.37283 620.191 9.7934 616.237 10.2135 612.288C10.7918 606.851 11.3692 601.422 11.3692 595.913V548.727V462.133C11.3692 458.004 11.3808 453.875 11.3924 449.745C11.4156 441.484 11.4388 433.223 11.3692 424.965C11.2859 415.081 9.88951 405.161 8.49678 395.267C7.66503 389.359 6.83457 383.459 6.28588 377.582C1.43323 325.605 0.0729438 273.025 0.0729438 220.803V147.653C0.0729438 145.451 0.054703 143.249 0.0364647 141.047C-0.0357308 132.331 -0.107889 123.619 0.95154 114.966C1.15661 113.291 1.37041 111.633 1.58293 109.985C2.53527 102.599 3.46182 95.4125 3.46182 87.8148C3.46182 84.1524 4.05566 80.4743 5.15625 77.007C5.98004 74.4119 6.10475 71.7069 6.22814 69.0306C6.34125 66.5772 6.45325 64.148 7.10172 61.8498C7.2821 61.2105 7.47333 60.543 7.67098 59.8532C9.30199 54.1606 11.3692 46.9456 11.3692 41.4863C11.3692 37.9141 14.6895 32.2831 16.9545 29.7559C17.2347 29.4434 17.7849 28.7378 18.44 27.8977C19.9921 25.9073 22.133 23.162 22.6654 23.0999C28.5261 22.4161 32.6175 21.2561 37.4848 19.8762C38.2297 19.665 38.9928 19.4486 39.7832 19.228C41.9108 18.6343 44.1198 18.3886 46.3274 18.4614C57.9497 18.845 69.5689 19.3518 81.1875 19.8586C104.749 20.8862 128.307 21.9137 151.882 21.9137C163.128 21.9137 174.314 21.3214 185.507 20.7286C196.714 20.1351 207.929 19.5412 219.22 19.5412H330.802C342.459 19.5412 354.105 18.9482 365.752 18.3552C377.401 17.762 389.051 17.1688 400.713 17.1688H446.902C451.796 17.1688 456.762 17.0165 461.754 16.8634C472.669 16.5288 483.702 16.1905 494.346 17.4324C513.915 19.7157 534.12 21.9137 553.84 21.9137C571.914 21.9137 589.456 22.0352 607.434 24.0225C621.555 25.5834 635.121 26.6586 649.356 26.6586H725.794C733.942 26.6586 741.867 25.6229 749.809 24.5849C754.995 23.9071 760.188 23.2283 765.456 22.8363C783.378 21.5026 801.149 20.7275 819.113 20.7275C830.323 20.7275 841.515 20.1346 852.709 19.5415C863.906 18.9483 875.106 18.355 886.326 18.355C892.311 18.355 898.31 18.42 904.315 18.4851C922.891 18.6863 941.52 18.8881 959.94 17.1688C967.125 16.4981 974.235 15.5554 981.331 14.6145C993.487 13.0026 1005.6 11.3961 1017.99 11.1718C1034.99 10.8641 1051.7 11.0308 1068.62 11.1996C1069.9 11.2124 1071.18 11.2251 1072.46 11.2377C1077.11 11.2833 1081.74 11.2987 1086.37 11.3141C1101.06 11.3629 1115.69 11.4115 1130.39 12.4239C1181.22 15.9245 1232.12 18.355 1283.08 18.355C1294.25 18.355 1305.46 17.9447 1316.67 17.534C1334.17 16.8929 1351.7 16.2511 1369.18 17.1688C1373.39 17.3902 1379.7 22.2489 1383.59 25.2475C1384 25.5657 1384.39 25.8629 1384.74 26.1314C1388.74 29.1742 1391.24 41.0998 1391.71 46.2312C1392.5 54.9758 1392.25 64.07 1392.01 73.0663C1391.89 77.407 1391.77 81.7248 1391.77 85.9696C1391.77 93.4363 1390.93 100.904 1390.08 108.392C1389.23 115.918 1388.38 123.463 1388.38 131.046C1388.38 139.014 1388.82 146.652 1389.45 154.573C1389.72 157.941 1390.42 161.313 1391.13 164.678C1391.98 168.732 1392.83 172.774 1392.9 176.781C1393.11 188.43 1394.12 200.04 1395.14 211.653C1396.28 224.696 1397.42 237.743 1397.42 250.854C1397.42 260.921 1397.98 270.946 1398.55 280.98C1399.11 291.033 1399.68 301.096 1399.68 311.22C1399.68 317.422 1399.76 323.653 1399.84 329.897C1400.11 351.365 1400.39 372.988 1397.42 394.123C1394.87 412.195 1393.74 430.21 1392.59 448.321C1392.31 452.874 1392.02 457.434 1391.71 462.002C1391.36 467.043 1390.78 472.025 1390.2 477.007C1389.29 484.779 1388.38 492.552 1388.38 500.554V533.702C1388.38 552.685 1390.6 571.307 1392.84 590.026C1393.24 593.39 1393.64 596.757 1394.03 600.13C1395.84 615.797 1395.58 631.815 1395.33 647.738C1395.25 653.282 1395.16 658.816 1395.16 664.318C1395.16 683.131 1370.97 694.173 1356 694.501C1352.18 694.584 1348.44 695.134 1344.69 695.684C1340.82 696.251 1336.96 696.817 1333.03 696.873C1324.87 696.989 1316.68 696.313 1308.51 695.638C1303.39 695.216 1298.28 694.795 1293.18 694.567C1270.65 693.56 1248.17 693.315 1225.59 693.315C1197.96 693.315 1170.28 692.666 1142.63 692.017C1124.92 691.602 1107.21 691.186 1089.53 690.942C1077.5 690.776 1065.46 690.708 1053.43 690.639C1031.68 690.516 1009.93 690.393 988.18 689.69C962.396 688.857 937.409 688.269 911.68 691.206C883.412 694.432 855.006 695.687 826.519 695.687C816.795 695.687 807.087 695.386 797.382 695.085C789.043 694.827 780.705 694.568 772.359 694.501C766.894 694.457 761.398 694.563 755.895 694.669C746.323 694.854 736.729 695.039 727.237 694.435C719.334 693.932 711.253 693.638 703.076 694.764C692.595 696.208 682.227 695.651 671.826 695.093C666.318 694.797 660.802 694.501 655.255 694.501C625.823 694.501 596.571 693.187 567.172 691.866L567.264 689.868M567.234 689.867C537.155 688.515 506.988 688.677 476.9 688.837C467.099 688.89 457.307 688.942 447.53 688.942C424.277 688.942 401.333 689.249 378.091 691.057C372.484 691.493 366.872 691.961 361.26 692.428C339.471 694.243 317.661 696.059 295.972 696.059C269.687 696.059 243.361 696.653 217.065 697.246H217.064L217.057 697.246C190.755 697.839 164.482 698.432 138.264 698.432C124.822 698.432 111.409 699.025 98.028 699.616L97.9456 699.62C84.5227 700.213 71.1307 700.804 57.6838 700.804C54.617 700.804 51.3771 701.057 48.1415 701.324L47.4031 701.386C44.3863 701.636 41.3704 701.887 38.3799 701.971C31.8921 702.153 25.84 701.533 20.7727 698.63C18.3222 697.227 17.3856 696.179 16.7962 694.967C16.4721 694.301 16.2173 693.509 15.9427 692.432C15.7894 691.83 15.6518 691.235 15.4973 690.566C15.3561 689.956 15.2007 689.284 15.0062 688.489C13.2109 681.158 11.401 673.104 10.2057 665.712C9.07382 658.713 9.12117 652.017 9.5532 645.227C9.74332 642.24 10.0064 639.252 10.2746 636.208C10.3116 635.788 10.3487 635.366 10.3858 634.943C10.6901 631.47 10.9878 627.924 11.1702 624.284C11.3673 620.352 11.7809 616.462 12.2009 612.513C12.2804 611.765 12.36 611.016 12.4385 610.264C12.9289 605.564 13.3692 600.78 13.3692 595.913V548.727V462.133C13.3692 458.016 13.3808 453.893 13.3923 449.766C13.4156 441.498 13.4388 433.217 13.3691 424.948C13.3015 416.923 12.383 408.905 11.3099 400.98C11.0366 398.962 10.7539 396.953 10.4722 394.952C9.64223 389.056 8.82117 383.223 8.27722 377.396C3.43263 325.506 2.07294 272.994 2.07294 220.803V147.653C2.07294 145.413 2.05464 143.185 2.03642 140.968C1.96492 132.266 1.8947 123.72 2.93672 115.209C3.1384 113.562 3.34994 111.922 3.56114 110.285C4.51499 102.892 5.46182 95.5532 5.46182 87.8148C5.46182 84.3657 6.02158 80.8914 7.06252 77.6122C7.94225 74.8407 8.09208 72.0016 8.21051 69.458C8.21427 69.3772 8.21801 69.2966 8.22173 69.2164C8.33911 66.6849 8.44207 64.4644 9.02656 62.3929C9.20281 61.7683 9.39115 61.111 9.58689 60.4279C10.3049 57.9222 11.1222 55.0696 11.8064 52.2108C12.6745 48.5831 13.3692 44.787 13.3692 41.4863C13.3692 40.1939 14.013 38.2456 15.092 36.142C16.1419 34.0954 17.4457 32.2045 18.4439 31.0908C18.7642 30.7334 19.4025 29.9157 20.1095 29.0099C20.5472 28.449 21.0113 27.8544 21.4427 27.3143C22.0452 26.56 22.6136 25.8715 23.065 25.3758C23.1969 25.231 23.3073 25.1154 23.3965 25.0265C29.1629 24.3158 33.306 23.1406 38.0408 21.7976C38.7834 21.587 39.5406 21.3722 40.3209 21.1544C42.2407 20.6186 44.2454 20.3938 46.2615 20.4603C57.8378 20.8424 69.4338 21.3481 81.0415 21.8543C104.629 22.883 128.265 23.9137 151.882 23.9137C163.181 23.9137 174.411 23.319 185.586 22.7272L185.634 22.7247C196.843 22.1311 207.999 21.5412 219.22 21.5412H330.802C342.51 21.5412 354.198 20.9461 365.828 20.3539L365.856 20.3524C377.513 19.7589 389.111 19.1688 400.713 19.1688H446.902C451.931 19.1688 456.971 19.0138 461.999 18.8591C472.835 18.5258 483.618 18.1942 494.115 19.4189C513.678 21.7015 533.989 23.9137 553.84 23.9137C571.918 23.9137 589.358 24.0366 607.215 26.0104C621.374 27.5756 635.019 28.6586 649.356 28.6586H725.794C732.66 28.6586 739.345 27.9373 745.926 27.1038C747.322 26.9269 748.711 26.7454 750.097 26.5644C755.275 25.8876 760.397 25.2183 765.605 24.8308C783.486 23.5001 801.207 22.7275 819.113 22.7275C830.376 22.7275 841.612 22.1322 852.788 21.5401L852.82 21.5384C864.024 20.9449 875.169 20.355 886.326 20.355C892.262 20.355 898.23 20.4198 904.216 20.4847C922.816 20.6864 941.592 20.8901 960.126 19.1602C967.353 18.4855 974.519 17.5353 981.627 16.5929C984.149 16.2584 986.664 15.9249 989.172 15.605C998.778 14.3799 1008.33 13.347 1018.03 13.1715C1034.99 12.8643 1051.68 13.0307 1068.61 13.1996C1069.89 13.2123 1071.16 13.2251 1072.44 13.2376C1077.12 13.2835 1081.77 13.299 1086.41 13.3144C1101.08 13.3633 1115.62 13.4117 1130.25 14.4192C1181.11 17.9216 1232.05 20.355 1283.08 20.355C1294.29 20.355 1305.55 19.9429 1316.76 19.532C1319.91 19.4169 1323.04 19.302 1326.18 19.1962C1340.53 18.7118 1354.83 18.418 1369.07 19.1661C1369.88 19.2085 1370.94 19.5131 1372.23 20.099C1373.5 20.675 1374.86 21.4671 1376.23 22.3666C1378.46 23.8221 1380.6 25.4717 1382.34 26.8108C1382.76 27.1357 1383.16 27.4422 1383.53 27.7234C1384.16 28.2038 1384.9 29.1887 1385.66 30.7207C1386.4 32.2091 1387.06 34.0283 1387.63 35.9649C1388.78 39.844 1389.49 43.979 1389.72 46.4118C1390.5 55.0414 1390.25 63.9273 1390.01 72.8537C1389.89 77.2244 1389.77 81.6048 1389.77 85.9696C1389.77 93.3233 1388.94 100.698 1388.09 108.224L1388.09 108.225C1387.24 115.714 1386.38 123.351 1386.38 131.046C1386.38 139.087 1386.82 146.784 1387.45 154.731C1387.73 158.235 1388.47 161.735 1389.17 165.08C1389.24 165.428 1389.32 165.775 1389.39 166.12C1390.16 169.835 1390.84 173.361 1390.9 176.817C1391.11 188.537 1392.13 200.211 1393.14 211.808L1393.33 213.972C1394.41 226.306 1395.42 238.561 1395.42 250.854C1395.42 260.978 1395.98 271.051 1396.55 281.068L1396.55 281.121C1397.12 291.174 1397.68 301.171 1397.68 311.22C1397.68 317.481 1397.76 323.751 1397.84 330.019C1398.11 351.46 1398.39 372.876 1395.44 393.845C1392.88 412 1391.74 430.114 1390.59 448.233C1390.31 452.777 1390.02 457.321 1389.71 461.866C1389.37 466.854 1388.8 471.772 1388.22 476.747C1388.05 478.148 1387.89 479.554 1387.73 480.967C1387 487.366 1386.38 493.87 1386.38 500.554V533.702C1386.38 552.814 1388.62 571.571 1390.85 590.287C1391.25 593.646 1391.65 597.002 1392.04 600.36C1393.83 615.885 1393.59 631.712 1393.33 647.596C1393.25 653.166 1393.16 658.744 1393.16 664.318C1393.16 672.774 1387.73 679.702 1380.1 684.665C1372.48 689.623 1363.05 692.346 1355.95 692.501C1352.02 692.587 1348.16 693.153 1344.45 693.698L1344.23 693.73C1340.4 694.291 1336.72 694.821 1333 694.873C1326.47 694.966 1319.9 694.544 1313.26 694.019C1311.74 693.899 1310.22 693.773 1308.7 693.647C1303.57 693.225 1298.41 692.798 1293.27 692.569C1270.7 691.56 1248.18 691.315 1225.59 691.315C1197.97 691.315 1170.35 690.667 1142.72 690.019C1125.01 689.603 1107.28 689.187 1089.56 688.942C1077.49 688.776 1065.44 688.707 1053.4 688.639C1031.67 688.516 1009.97 688.393 988.245 687.691C962.466 686.858 937.345 686.263 911.453 689.219C883.277 692.435 854.949 693.687 826.519 693.687C817.513 693.687 808.516 693.428 799.492 693.15L797.444 693.086C789.107 692.828 780.746 692.568 772.376 692.501C766.79 692.456 761.243 692.564 755.721 692.671C746.218 692.856 736.79 693.039 727.364 692.439C719.439 691.935 711.19 691.628 702.803 692.783C694.968 693.862 687.161 693.803 679.249 693.462C676.85 693.359 674.43 693.229 671.997 693.099C666.463 692.802 660.857 692.501 655.255 692.501C625.876 692.501 596.67 691.189 567.264 689.868M567.234 689.867L567.264 689.868" stroke="black" stroke-width="4"/>
</g>
<defs>
<filter id="filter0_d_1_33" x="0" y="0" width="1411" height="704" filterUnits="userSpaceOnUse" color-interpolation-filters="sRGB">
<feFlood flood-opacity="0" result="BackgroundImageFix"/>
<feColorMatrix in="SourceAlpha" type="matrix" values="0 0 0 0 0 0 0 0 0 0 0 0 0 0 0 0 0 0 127 0" result="hardAlpha"/>
<feOffset dx="11" dy="-11"/>
<feComposite in2="hardAlpha" operator="out"/>
<feColorMatrix type="matrix" values="0 0 0 0 0 0 0 0 0 0 0 0 0 0 0 0 0 0 1 0"/>
<feBlend mode="normal" in2="BackgroundImageFix" result="effect1_dropShadow_1_33"/>
<feBlend mode="normal" in="SourceGraphic" in2="effect1_dropShadow_1_33" result="shape"/>
</filter>
</defs>
</svg>
