<svg width="78" height="70" viewBox="0 0 78 70" fill="none" xmlns="http://www.w3.org/2000/svg">
<path d="M36.4177 65.5993C37.3885 65.6096 38.3645 65.5891 39.3404 65.5377L39.3456 65.5326C52.264 64.8751 65.167 58.9937 72.4454 48.3611L36.4177 65.5993ZM36.4177 65.5993C32.3445 65.5582 28.2147 65.0292 24.4804 63.406M36.4177 65.5993L24.4804 63.406M70.7951 47.2314C78.1774 36.4434 77.8541 20.5277 68.8884 11.4763C63.3736 5.91406 55.3425 3.21099 47.1621 2.30724C47.1612 2.30715 47.1604 2.30705 47.1596 2.30696L46.5212 2.23808L40.3975 2.01466L40.3963 2.01462C37.6575 1.91292 34.1999 2.34482 30.8682 3.20515C27.5174 4.07042 24.488 5.31917 22.5176 6.73177C18.3671 9.70718 15.2382 14.0496 12.612 18.7798L12.6119 18.7801C9.71521 23.9951 7.56946 29.513 7.81232 35.052L7.81235 35.0528C7.99432 39.2381 9.54684 43.3567 11.6274 47.3234L70.7951 47.2314ZM70.7951 47.2314C63.9431 57.241 51.6824 62.9021 39.2439 63.5351L38.4955 63.5732C37.8084 63.5979 37.1222 63.6067 36.4389 63.5994L36.4379 63.5994C32.5054 63.5598 28.6723 63.0473 25.2777 61.5718L25.2771 61.5715C19.3158 58.9827 14.8619 53.4827 11.6278 47.3242L70.7951 47.2314ZM24.4804 63.406C17.9159 60.5552 13.1852 54.5917 9.8567 48.2532L24.4804 63.406Z" fill="#B82557" stroke="black" stroke-width="4"/>
<path d="M25.8106 66.2278C37.755 69.0439 50.8708 67.123 60.195 59.6381L25.8106 66.2278ZM25.8106 66.2278L25.8101 66.2274L25.2706 66.0933C24.3584 65.8664 23.463 65.6155 22.5739 65.3355L22.5737 65.3354C18.8221 64.1544 15.3007 62.5557 12.4811 60.161C7.52614 55.9525 4.85265 49.3967 3.54541 42.5711L3.54538 42.5709C2.70219 38.1704 2.41124 33.7787 3.45157 29.7247L3.45201 29.723C4.82496 24.3526 8.47784 19.6964 12.7637 15.5362C16.6513 11.7693 20.8982 8.52048 25.7346 6.87676L25.7352 6.87657C28.0292 6.09617 31.2908 5.77957 34.7492 5.92266C38.1875 6.06492 41.622 6.65315 44.2118 7.54237C44.2119 7.54241 44.212 7.54244 44.2121 7.54248L50.0017 9.53154L50.5903 9.78447L50.5928 9.78552C58.1618 13.0258 65.068 17.9366 68.73 24.8616L68.7303 24.8621C74.6889 36.1231 70.3875 51.4509 60.1955 59.6378L25.8106 66.2278Z" fill="#F12C6F" stroke="black" stroke-width="4"/>
<path d="M24.332 51.3333H47.6654V48H24.332V51.3333ZM47.6654 33H40.9987V23H30.9987V33H24.332L35.9987 44.6667L47.6654 33Z" fill="black"/>
</svg>
