<svg width="1250" height="450" viewBox="0 0 1250 450" fill="none" xmlns="http://www.w3.org/2000/svg">
<g opacity="0.37" clip-path="url(#clip0_1_44)">
<mask id="mask0_1_44" style="mask-type:alpha" maskUnits="userSpaceOnUse" x="-22" y="-462" width="1294" height="1236">
<rect x="-22" y="-461.262" width="1294" height="1234.37" fill="url(#paint0_linear_1_44)"/>
</mask>
<g mask="url(#mask0_1_44)">
<path d="M625.093 -562.484L625.579 -22.8649V212.319L625.118 751.646" stroke="black" stroke-width="1.74828" stroke-linecap="round" stroke-linejoin="round"/>
<path d="M296.282 751.646L566.653 212.319V-22.8649L295.426 -562.484" stroke="black" stroke-width="1.74828" stroke-linecap="round" stroke-linejoin="round"/>
<path d="M954.759 -562.484L684.508 -22.8649V212.319L953.949 751.646" stroke="black" stroke-width="1.74828" stroke-linecap="round" stroke-linejoin="round"/>
<path d="M-32.918 423.448L389.895 212.319V-22.8674L-32.7956 -233.39" stroke="black" stroke-width="1.74828" stroke-linecap="round" stroke-linejoin="round"/>
<path d="M-32.918 226.162L36.3629 212.318V-22.8658L-32.918 -36.673" stroke="black" stroke-width="1.74828" stroke-linecap="round" stroke-linejoin="round"/>
<path d="M-32.918 240.777L95.2836 212.318V-22.8664L-32.918 -51.254" stroke="black" stroke-width="1.74828" stroke-linecap="round" stroke-linejoin="round"/>
<path d="M-32.918 259.053L154.208 212.32V-22.864L-32.918 -69.4747" stroke="black" stroke-width="1.74828" stroke-linecap="round" stroke-linejoin="round"/>
<path d="M-32.918 282.539L213.129 212.319V-22.8652L-32.918 -92.9064" stroke="black" stroke-width="1.74828" stroke-linecap="round" stroke-linejoin="round"/>
<path d="M-32.918 313.852L272.05 212.318V-22.8659L-32.918 -124.144" stroke="black" stroke-width="1.74828" stroke-linecap="round" stroke-linejoin="round"/>
<path d="M-32.918 357.698L330.976 212.321V-22.8654L-32.918 -167.868" stroke="black" stroke-width="1.74828" stroke-linecap="round" stroke-linejoin="round"/>
<path d="M-32.918 533.006L448.816 212.319V-22.8669L-32.918 -342.732" stroke="black" stroke-width="1.74828" stroke-linecap="round" stroke-linejoin="round"/>
<path d="M-32.5346 751.646L507.743 212.32V-22.8644L-32.918 -561.184" stroke="black" stroke-width="1.74828" stroke-linecap="round" stroke-linejoin="round"/>
<path d="M1284.09 226.165L1214.81 212.321V-22.8626L1284.09 -36.6759" stroke="black" stroke-width="1.74828" stroke-linecap="round" stroke-linejoin="round"/>
<path d="M1284.09 240.791L1155.89 212.32V-22.8641L1284.09 -51.2599" stroke="black" stroke-width="1.74828" stroke-linecap="round" stroke-linejoin="round"/>
<path d="M1284.09 259.071L1096.96 212.32V-22.8642L1284.09 -69.4952" stroke="black" stroke-width="1.74828" stroke-linecap="round" stroke-linejoin="round"/>
<path d="M1284.09 282.571L1038.04 212.32V-22.8659L1284.09 -92.9376" stroke="black" stroke-width="1.74828" stroke-linecap="round" stroke-linejoin="round"/>
<path d="M1284.09 -124.195L979.127 -22.8668L979.121 212.319L1284.09 313.91" stroke="black" stroke-width="1.74828" stroke-linecap="round" stroke-linejoin="round"/>
<path d="M1284.09 -167.967L920.205 -22.8623L920.199 212.322L1284.2 357.839" stroke="black" stroke-width="1.74828" stroke-linecap="round" stroke-linejoin="round"/>
<path d="M1284.19 -233.684L861.28 -22.8663L861.273 212.318L1284.09 423.628" stroke="black" stroke-width="1.74828" stroke-linecap="round" stroke-linejoin="round"/>
<path d="M1284.19 -343.168L802.355 -22.8638V212.322L1284.09 533.373" stroke="black" stroke-width="1.74828" stroke-linecap="round" stroke-linejoin="round"/>
<path d="M1284.08 -562.148L743.422 -22.8657V212.318L1282.77 751.645" stroke="black" stroke-width="1.74828" stroke-linecap="round" stroke-linejoin="round"/>
<path d="M-32.918 212.321H1284.09" stroke="black" stroke-width="1.74828" stroke-linecap="round" stroke-linejoin="round"/>
<path d="M-32.918 153.527H1284.09" stroke="black" stroke-width="1.74828" stroke-linecap="round" stroke-linejoin="round"/>
<path d="M-32.918 94.7381H1284.09" stroke="black" stroke-width="1.74828" stroke-linecap="round" stroke-linejoin="round"/>
<path d="M-32.918 35.9402H1284.09" stroke="black" stroke-width="1.74828" stroke-linecap="round" stroke-linejoin="round"/>
<path d="M1283.8 212.321H-32.918" stroke="black" stroke-width="1.74828" stroke-linecap="round" stroke-linejoin="round"/>
<path d="M1284.09 217.604H-32.918" stroke="black" stroke-width="1.74828" stroke-linecap="round" stroke-linejoin="round"/>
<path d="M1284.09 223.384H-32.918" stroke="black" stroke-width="1.74828" stroke-linecap="round" stroke-linejoin="round"/>
<path d="M1284.09 229.738H-32.918" stroke="black" stroke-width="1.74828" stroke-linecap="round" stroke-linejoin="round"/>
<path d="M1284.09 236.744H-32.918" stroke="black" stroke-width="1.74828" stroke-linecap="round" stroke-linejoin="round"/>
<path d="M1284.09 244.519H-32.918" stroke="black" stroke-width="1.74828" stroke-linecap="round" stroke-linejoin="round"/>
<path d="M1284.09 253.194H-32.918" stroke="black" stroke-width="1.74828" stroke-linecap="round" stroke-linejoin="round"/>
<path d="M1284.09 262.939H-32.918" stroke="black" stroke-width="1.74828" stroke-linecap="round" stroke-linejoin="round"/>
<path d="M1284.09 273.954H-32.918" stroke="black" stroke-width="1.74828" stroke-linecap="round" stroke-linejoin="round"/>
<path d="M1284.09 286.511H-32.918" stroke="black" stroke-width="1.74828" stroke-linecap="round" stroke-linejoin="round"/>
<path d="M1284.09 300.96H-32.918" stroke="black" stroke-width="1.74828" stroke-linecap="round" stroke-linejoin="round"/>
<path d="M1284.09 317.765H-32.918" stroke="black" stroke-width="1.74828" stroke-linecap="round" stroke-linejoin="round"/>
<path d="M1284.09 337.543H-32.918" stroke="black" stroke-width="1.74828" stroke-linecap="round" stroke-linejoin="round"/>
<path d="M1284.09 361.172H-32.918" stroke="black" stroke-width="1.74828" stroke-linecap="round" stroke-linejoin="round"/>
<path d="M1284.09 389.892H-33.1992" stroke="black" stroke-width="1.74828" stroke-linecap="round" stroke-linejoin="round"/>
<path d="M1284.09 425.54H-32.918" stroke="black" stroke-width="1.74828" stroke-linecap="round" stroke-linejoin="round"/>
</g>
</g>
<defs>
<linearGradient id="paint0_linear_1_44" x1="625" y1="-461.262" x2="625" y2="773.111" gradientUnits="userSpaceOnUse">
<stop offset="0.257522" stop-color="#D9D9D9" stop-opacity="0"/>
<stop offset="1" stop-color="#737373"/>
</linearGradient>
<clipPath id="clip0_1_44">
<rect width="1294" height="602" fill="white" transform="translate(-22 -21)"/>
</clipPath>
</defs>
</svg>
