<svg width="90" height="91" viewBox="0 0 90 91" fill="none" xmlns="http://www.w3.org/2000/svg">
<path d="M2.59479 45.8895L6.83689 48.826C19.7068 55.4919 32.6674 62.2061 45.6279 68.9203C58.0233 75.3417 70.4185 81.763 82.7343 88.142L85.8126 82.2919L83.9635 67.7015L71.1238 49.6923L45.5257 34.7852L5.58709 40.2029L2.59479 45.8895Z" fill="#1CB35A" stroke="black" stroke-width="4"/>
<path d="M86.2632 40.534C86.954 27.9892 87.629 15.7311 86.8789 3.18376C61.0223 16.573 34.5386 28.3289 7.57876 39.2425L11.0511 41.1933C23.9661 47.8825 36.8811 54.5731 49.796 61.2636L49.9088 61.322L50.0565 61.3985C61.9183 67.5436 73.78 73.6885 85.6417 79.8324C84.859 66.3288 85.5498 53.4921 86.2411 40.9355L86.2632 40.534Z" fill="#1FE370" stroke="black" stroke-width="4"/>
</svg>
