<svg width="94" height="91" viewBox="0 0 94 91" fill="none" xmlns="http://www.w3.org/2000/svg">
<path d="M80.5954 46.8216L78.1551 48.1926C65.2025 54.9012 52.2499 61.6113 39.2975 68.3213L39.1981 68.3728C27.3198 74.5263 15.4415 80.6799 3.56321 86.8323C4.34788 73.1634 3.65695 59.2845 2.96559 45.6931L2.94391 45.267C2.20778 30.7985 1.48909 16.673 2.49215 3.23132C2.70867 3.08262 3.18401 2.92503 4.25137 3.0113C5.84811 3.14035 8.11221 3.80033 11.0045 5.00532C16.7456 7.39722 24.3232 11.6584 32.742 16.7866C39.6347 20.9852 47.0977 25.7717 54.4866 30.5107C63.7253 36.436 72.8481 42.287 80.5954 46.8216Z" fill="#1CB35A" stroke="black" stroke-width="4"/>
<path d="M11.9468 42.7206C11.256 30.1758 10.5809 17.9177 11.331 5.37028C37.1877 18.7595 63.6713 30.5154 90.6312 41.429L87.1588 43.3798C74.2438 50.069 61.3289 56.7596 48.414 63.4501L48.3012 63.5086L48.1535 63.5851C36.2917 69.7301 24.4299 75.875 12.5682 82.0189C13.351 68.5153 12.6602 55.6786 11.9689 43.122L11.9468 42.7206Z" fill="#1FE370" stroke="black" stroke-width="4"/>
</svg>
