<svg width="78" height="70" viewBox="0 0 78 70" fill="none" xmlns="http://www.w3.org/2000/svg">
<path d="M36.4177 65.5993C37.3885 65.6096 38.3645 65.5891 39.3404 65.5377L39.3456 65.5326C52.264 64.8751 65.167 58.9937 72.4454 48.3611L36.4177 65.5993ZM36.4177 65.5993C32.3445 65.5582 28.2147 65.0292 24.4804 63.406M36.4177 65.5993L24.4804 63.406M70.7951 47.2314C78.1774 36.4434 77.8541 20.5277 68.8884 11.4763C63.3736 5.91406 55.3425 3.21099 47.1621 2.30724C47.1612 2.30715 47.1604 2.30705 47.1596 2.30696L46.5212 2.23808L40.3975 2.01466L40.3963 2.01462C37.6575 1.91292 34.1999 2.34482 30.8682 3.20515C27.5174 4.07042 24.488 5.31917 22.5176 6.73177C18.3671 9.70718 15.2382 14.0496 12.612 18.7798L12.6119 18.7801C9.71521 23.9951 7.56946 29.513 7.81232 35.052L7.81235 35.0528C7.99432 39.2381 9.54684 43.3567 11.6274 47.3234L70.7951 47.2314ZM70.7951 47.2314C63.9431 57.241 51.6824 62.9021 39.2439 63.5351L38.4955 63.5732C37.8084 63.5979 37.1222 63.6067 36.4389 63.5994L36.4379 63.5994C32.5054 63.5598 28.6723 63.0473 25.2777 61.5718L25.2771 61.5715C19.3158 58.9827 14.8619 53.4827 11.6278 47.3242L70.7951 47.2314ZM24.4804 63.406C17.9159 60.5552 13.1852 54.5917 9.8567 48.2532L24.4804 63.406Z" fill="#C2B722" stroke="black" stroke-width="4"/>
<path d="M25.8106 66.2279C37.755 69.0439 50.8708 67.123 60.195 59.6381L25.8106 66.2279ZM25.8106 66.2279L25.8101 66.2274L25.2706 66.0933C24.3585 65.8664 23.4631 65.6155 22.5739 65.3355L22.5738 65.3354C18.8222 64.1544 15.3007 62.5558 12.4812 60.161C7.52617 55.9525 4.85268 49.3967 3.54544 42.5711L3.54541 42.5709C2.70222 38.1704 2.41128 33.7787 3.4516 29.7247L3.45205 29.723C4.82492 24.3529 8.47752 19.6969 12.7632 15.5368C16.6509 11.7696 20.898 8.52056 25.7347 6.87676L25.7352 6.87657C28.0292 6.09617 31.2908 5.77957 34.7492 5.92266C38.1877 6.06493 41.6223 6.6532 44.2121 7.54248L50.0017 9.53154L50.5903 9.78447L50.5928 9.78552C58.1619 13.0258 65.0681 17.9366 68.7301 24.8616L68.7303 24.8621C74.689 36.1231 70.3875 51.4509 60.1955 59.6378L25.8106 66.2279Z" fill="#FFE000" stroke="black" stroke-width="4"/>
</svg>
